<?xml version="1.0" encoding="UTF-8"?>
<svg width="300px" height="89px" viewBox="0 0 300 89" version="1.1" xmlns="http://www.w3.org/2000/svg" xmlns:xlink="http://www.w3.org/1999/xlink">
    <!-- Generator: Sketch 50.2 (55047) - http://www.bohemiancoding.com/sketch -->
    <title>Ardeo-Logo-Red</title>
    <desc>Created with Sketch.</desc>
    <defs>
        <polygon id="path-1" points="0.526020719 0.309767442 50.3824299 0.309767442 50.3824299 88.9534884 0.526020719 88.9534884"></polygon>
    </defs>
    <g id="Page-1" stroke="none" stroke-width="1" fill="none" fill-rule="evenodd">
        <g id="Exp-Copy-9" transform="translate(-139.000000, -115.000000)">
            <g id="Ardeo-Logo-Red" transform="translate(139.000000, 115.000000)">
                <g id="Group">
                    <g id="Group-3" transform="translate(249.438603, 0.046512)">
                        <mask id="mask-2" fill="white">
                            <use xlink:href="#path-1"></use>
                        </mask>
                        <g id="Clip-2"></g>
                        <path d="M2.13830732,88.953907 C11.5897498,72.0977442 22.2881261,65.3435581 39.9567045,65.5078605 C65.5919798,65.7454186 35.8844397,0.309139535 35.8844397,0.309139535 C13.9847045,23.2120465 -5.26121882,52.3008837 2.13830732,88.953907 Z" id="Fill-1" fill="#E80000" mask="url(#mask-2)"></path>
                    </g>
                    <path d="M14.5914077,48.1477442 L36.5921603,48.1477442 L25.7064808,21.1958837 L14.5914077,48.1477442 Z M51.1313031,63.8203023 C51.1313031,64.8793721 50.7503833,65.7877442 49.9895958,66.5454186 C49.2288084,67.303093 48.2880836,67.6808837 47.1726829,67.6808837 C46.4118955,67.6808837 45.6889895,67.4663488 45.0029129,67.0372791 C44.3178885,66.6092558 43.823324,66.0148372 43.5192195,65.2582093 L39.2554425,54.6591395 L11.9270732,54.6591395 L7.58858537,65.2582093 C7.23291986,66.0148372 6.72467596,66.6092558 6.06595819,67.0372791 C5.40618815,67.4663488 4.69590941,67.6808837 3.93406969,67.6808837 C2.81761672,67.6808837 1.89057143,67.2905349 1.15503833,66.5077442 C0.419505226,65.726 0.0522648084,64.8040233 0.0522648084,63.743907 C0.0522648084,63.2405349 0.177484321,62.6586744 0.432132404,62.0025116 L21.8236237,11.2016977 C22.5844111,9.43623256 23.8271359,8.55297674 25.5528502,8.55297674 C27.3806341,8.55297674 28.6233589,9.43623256 29.2831289,11.2016977 L50.7503833,62.1542558 C51.0039791,62.8114651 51.1313031,63.3650698 51.1313031,63.8203023 Z" id="Fill-4" fill="#000000"></path>
                    <path d="M85.7677568,27.0253721 C87.290384,27.8332791 88.0511714,28.8421163 88.0511714,30.0539767 C88.0511714,30.4066512 88.0248648,30.659907 87.9754084,30.8106047 C87.5187254,32.4264186 86.5022376,33.2343256 84.930154,33.2343256 C84.6755059,33.2343256 84.2956383,33.184093 83.7884467,33.0815349 C81.7575756,32.729907 80.1086767,32.552 78.8406976,32.552 C75.1861819,32.552 72.2419449,33.3850233 70.009039,35.0510698 C67.7761331,36.7160698 66.6596801,38.9618837 66.6596801,41.7885116 L66.6596801,63.8950233 C66.6596801,65.1068837 66.3429484,66.0414186 65.7084328,66.6965349 C65.0728648,67.3526977 64.1216174,67.6813023 62.8536383,67.6813023 C61.6361679,67.6813023 60.6964955,67.3663023 60.0367254,66.7342093 C59.3769554,66.1042093 59.0475965,65.1581628 59.0475965,63.8950233 L59.0475965,30.0539767 C59.0475965,28.8421163 59.3769554,27.9096744 60.0367254,27.2524651 C60.6964955,26.5973488 61.6361679,26.2676977 62.8536383,26.2676977 C65.3906488,26.2676977 66.6596801,27.5297907 66.6596801,30.0539767 L66.6596801,31.4929302 C68.1833596,29.7264186 70.0595477,28.3387442 72.2935059,27.327814 C74.5253596,26.3189767 76.9108439,25.8145581 79.4489066,25.8145581 C82.1384955,25.8145581 84.2451296,26.2185116 85.7677568,27.0253721" id="Fill-6" fill="#000000"></path>
                    <path d="M118.767623,59.3149651 C120.822696,58.0790349 122.432661,56.375314 123.601728,54.2048488 C124.768689,52.0354302 125.351644,49.6127558 125.351644,46.9368256 C125.351644,44.2619419 124.768689,41.8518256 123.601728,39.7064767 C122.432661,37.5621744 120.822696,35.8720581 118.767623,34.6340349 C116.711498,33.3970581 114.415456,32.7796163 111.878445,32.7796163 C109.340383,32.7796163 107.044341,33.3970581 104.989268,34.6340349 C102.933142,35.8720581 101.308445,37.5621744 100.116229,39.7064767 C98.9240132,41.8518256 98.3284314,44.2619419 98.3284314,46.9368256 C98.3284314,49.6127558 98.9240132,52.0354302 100.116229,54.2048488 C101.308445,56.375314 102.933142,58.0790349 104.989268,59.3149651 C107.044341,60.5529884 109.340383,61.1693837 111.878445,61.1693837 C114.415456,61.1693837 116.711498,60.5529884 118.767623,59.3149651 M131.746257,9.61298837 C132.456536,10.3204302 132.812201,11.2528721 132.812201,12.4145 L132.812201,46.9368256 C132.812201,50.8738023 131.886208,54.4455465 130.034222,57.6489186 C128.180132,60.8554302 125.668376,63.3785698 122.496849,65.2204302 C119.325323,67.0633372 115.785505,67.9832209 111.878445,67.9832209 C107.969282,67.9832209 104.405261,67.0633372 101.183226,65.2204302 C97.9590864,63.3785698 95.4357554,60.8554302 93.6079714,57.6489186 C91.7812397,54.4455465 90.8678739,50.8738023 90.8678739,46.9368256 C90.8678739,42.9998488 91.7170516,39.4301977 93.4175115,36.2247326 C95.1169192,33.0192674 97.452947,30.508686 100.421386,28.6908953 C103.389825,26.8741512 106.701302,25.9657791 110.355818,25.9657791 C113.297951,25.9657791 116.0391,26.5717093 118.577163,27.7825233 C121.114174,28.9933372 123.270264,30.6855465 125.047539,32.8549651 L125.047539,12.4145 C125.047539,11.2528721 125.41478,10.3204302 126.151365,9.61298837 C126.886898,8.90659302 127.812891,8.55287209 128.930397,8.55287209 C130.097358,8.55287209 131.034926,8.90659302 131.746257,9.61298837" id="Fill-8" fill="#000000"></path>
                    <path d="M155.915517,35.5047326 C153.605796,37.5245 152.147357,40.2245 151.538095,43.6057791 L176.888207,43.6057791 C176.431524,40.2245 175.162493,37.5245 173.081113,35.5047326 C170.999733,33.4860116 168.285942,32.4761279 164.936583,32.4761279 C161.231559,32.4761279 158.224186,33.4860116 155.915517,35.5047326 M182.9019,48.7158953 C182.24213,49.3479884 181.404528,49.6619419 180.390144,49.6619419 L151.462332,49.6619419 C152.020033,53.1949651 153.632102,56.0477558 156.296437,58.2171744 C158.960771,60.3876395 162.220688,61.4718256 166.078291,61.4718256 C167.600918,61.4718256 169.186681,61.196593 170.836632,60.6408953 C172.484479,60.0851977 173.842953,59.4039186 174.908897,58.5949651 C175.619176,58.0413605 176.456778,57.7640349 177.420653,57.7640349 C178.384528,57.7640349 179.145315,58.0162442 179.704068,58.5196163 C180.618486,59.2772907 181.075169,60.1354302 181.075169,61.0940349 C181.075169,62.002407 180.667942,62.7600814 179.856646,63.3649651 C178.130932,64.7285698 175.986416,65.8389186 173.424151,66.6970581 C170.860834,67.5551977 168.412214,67.9832209 166.078291,67.9832209 C161.916583,67.9832209 158.186305,67.0884535 154.887454,65.2957791 C151.588604,63.5051977 149.01266,61.018686 147.161726,57.8393837 C145.307636,54.6590349 144.382695,51.0506628 144.382695,47.0121744 C144.382695,42.9757791 145.258179,39.3548488 147.009148,36.1483372 C148.760116,32.9439186 151.196109,30.4448488 154.317127,28.6532209 C157.438144,26.861593 160.977963,25.9657791 164.936583,25.9657791 C168.843643,25.9657791 172.218256,26.8239186 175.060423,28.5401977 C177.90259,30.2554302 180.084987,32.6529884 181.607615,35.7318256 C183.130242,38.8106628 183.891029,42.3447326 183.891029,46.3308953 C183.891029,47.2905465 183.560618,48.0848488 182.9019,48.7158953" id="Fill-10" fill="#000000"></path>
                    <path d="M218.109102,59.3527442 C220.164176,58.1419302 221.762566,56.4643721 222.905325,54.3179767 C224.047033,52.1736744 224.61736,49.7373953 224.61736,47.0122791 C224.61736,44.2871628 224.047033,41.8393721 222.905325,39.6678605 C221.762566,37.4994884 220.164176,35.8072791 218.109102,34.5964651 C216.052977,33.3856512 213.731681,32.7786744 211.143109,32.7786744 C208.55559,32.7786744 206.233242,33.3856512 204.178169,34.5964651 C202.123095,35.8072791 200.511026,37.4994884 199.344064,39.6678605 C198.17605,41.8393721 197.593095,44.2871628 197.593095,47.0122791 C197.593095,49.7373953 198.17605,52.1736744 199.344064,54.3179767 C200.511026,56.4643721 202.123095,58.1419302 204.178169,59.3527442 C206.233242,60.5635581 208.55559,61.1694884 211.143109,61.1694884 C213.731681,61.1694884 216.052977,60.5635581 218.109102,59.3527442 M200.25743,65.2958837 C197.060649,63.5053023 194.573095,61.0187907 192.797925,57.8394884 C191.020649,54.6591395 190.13359,51.0507674 190.13359,47.0122791 C190.13359,42.9246047 191.020649,39.2900698 192.797925,36.1107674 C194.573095,32.9304186 197.060649,30.4449535 200.25743,28.6533256 C203.455263,26.8616977 207.08242,25.9658837 211.143109,25.9658837 C215.152238,25.9658837 218.743618,26.8616977 221.915144,28.6533256 C225.08667,30.4449535 227.573172,32.9304186 229.375702,36.1107674 C231.176127,39.2900698 232.077918,42.9246047 232.077918,47.0122791 C232.077918,51.0507674 231.189806,54.6591395 229.413583,57.8394884 C227.636308,61.0187907 225.162433,63.5053023 221.990907,65.2958837 C218.819381,67.0885581 215.202747,67.9833256 211.143109,67.9833256 C207.08242,67.9833256 203.455263,67.0885581 200.25743,65.2958837" id="Fill-12" fill="#000000"></path>
                </g>
            </g>
        </g>
    </g>
</svg>